<svg xmlns="http://www.w3.org/2000/svg" width="39" height="39"><g fill="#FFF"><path d="M0 24.45l.853.853L3.98 28.43l.853.853.853-.853a3.199 3.199 0 014.549 0 3.199 3.199 0 010 4.549l-.853.853.853.853 3.127 3.127.853.853.853-.853 22.744-22.744.853-.853-.853-.853-3.127-3.127-.853-.853-.853.853a3.199 3.199 0 01-4.549 0 3.199 3.199 0 010-4.549l.853-.853-.853-.853L25.303.853 24.45 0l-.853.853L.853 23.597 0 24.45zm3.412 0l13.93-13.93 10.804 10.803-13.931 13.93-1.528-1.528c1.387-2.175 1.149-5.106-.746-7-1.895-1.896-4.835-2.143-7.01-.756l-1.52-1.52zM19.048 8.813l5.402-5.401 1.52 1.519c-1.388 2.175-1.14 5.115.754 7.01 1.895 1.895 4.826 2.133 7.001.746l1.528 1.528-5.401 5.402L19.048 8.813z"/><path d="M18.379 21.657a.348.348 0 01-.295.055c-.107-.024-.184-.06-.262-.095-.163-.08-.333-.166-.516-.252-.192-.094-.367-.174-.517-.253-.19-.092-.368-.186-.545-.266a1.694 1.694 0 00-.43-.11 1.64 1.64 0 00-.436.037c-.154.042-.316.13-.462.276-.293.293-.444.586-.441.868-.003.29.191.622.581 1.012.4.4.746.593 1.041.583.295-.012.582-.156.86-.434l1.421-1.421h0zm2.058-4.109c.698.698 1.079 1.343 1.135 1.94.062.593-.115 1.098-.519 1.502l-3.44 3.44c-.138.139-.32.264-.537.381-.217.117-.47.17-.765.154-.289-.01-.614-.098-.968-.271-.354-.173-.744-.466-1.164-.886-.419-.42-.713-.81-.886-1.164-.172-.353-.26-.678-.269-.968a1.578 1.578 0 01.154-.765 2.27 2.27 0 01.38-.537l.55-.55a2.019 2.019 0 011.035-.567c.4-.086.787-.033 1.177.148.19.093.404.208.65.33.25.122.482.23.708.346.228.115.433.208.61.287.107.047.214.097.317.152l.191.065a.892.892 0 00.275.025c.106-.006.21-.026.316-.06a.75.75 0 00.3-.187l.223-.222a.802.802 0 00.187-.287.771.771 0 00.066-.394 1.235 1.235 0 00-.145-.48 2.338 2.338 0 00-.43-.553c-.397-.398-.738-.585-1.04-.568a1.22 1.22 0 00-.713.302c-.043.043-.106.035-.149-.008l-.883-.855a.11.11 0 010-.156l.2-.2a1.87 1.87 0 01.664-.437c.254-.096.52-.12.81-.083.289.039.606.148.932.334.333.166.673.437 1.03.793h-.002z" stroke="#FFF" stroke-width=".4"/></g></svg>